<svg xmlns="http://www.w3.org/2000/svg" width="150" height="64" viewBox="0 0 150 64">
  <g id="logo" transform="translate(-814 -2093)">
    <path id="Union_1" data-name="Union 1" d="M10.492,42.986C3.956,42.458-.97,36.785.811,30.156a17.5,17.5,0,0,0,.752-2.13C1.428,27.411.343,27.361,0,26.919l6.369-.125L4.807,28.162c-6.289,9.166,7.43,16.729,13.48,8.461C24.773,27.762,9.707,20.615,6.145,14.5,2.388,8.051,5.466.3,13.3.007c7.093-.264,11.85,6.785,7.8,12.945l-.273,0L18.744,11.4C22.6,5.194,14.582.291,9.452,4.269c-3.7,2.87-2.092,7.862.6,10.818,4.044,4.438,9.81,7.289,11.863,13.455,2.369,7.116-2.561,13.885-9.925,14.444Zm79-7.222c-7.108-2.678-11.649-9.046-14.173-15.947h4.059c3.355,0,6.223-5.2,3.3-7.65-1.267-1.063-3.432-1-5.342-.937-.724.024-1.411.047-2,.01L72.013,29.165c-.162.229-1.541.146-2.78.064a14.819,14.819,0,0,0-1.908-.07L68.7,28.1a5.1,5.1,0,0,0,.936-1.807c1.246-4.28,1.426-9.407,2.545-13.778a4.559,4.559,0,0,0-1.857-4.032H80.877a6.533,6.533,0,0,1,5.438,4.168c1.624,4.689-1.991,9.476-6.749,9.969C82.523,28.473,87.2,32.806,93.8,34.085c6.486,1.256,11.848-.143,18.019-1.72.129-.033.39-.191.471-.028a25.069,25.069,0,0,1-14.678,4.91A22.949,22.949,0,0,1,89.492,35.765ZM26.107,20.879c.232-2.631,1.668-6.378,1.632-8.844a4.805,4.805,0,0,0-2.008-3.551h5.5L28.869,21.39a5.169,5.169,0,0,0,10.092,1.969c.405-3.443,1.813-7.423,2.013-10.822a4.193,4.193,0,0,0-.94-3.182L39.1,8.483h5.5L41.809,23.707a7.991,7.991,0,0,1-15.7-2.828Zm74.82,6.6c-1.123-1.33-1.039-2.684-1.936-4.048l-2.44-1.366h5.308c.822,0,.5,1.765.573,2.293.529,3.835,8.43,3.318,7.428-1.553-.452-2.2-5.329-3.951-6.867-5.858a5.33,5.33,0,0,1,1.187-7.763c3.786-2.662,9.567-.431,8.982,4.535h-2.873a2.021,2.021,0,0,0-1.037-2.517c-3.029-1.5-6.41,2.116-3.5,4.488,2.722,2.22,6.859,3.32,7.04,7.552.172,4.025-3.313,6.507-6.808,6.507A6.516,6.516,0,0,1,100.928,27.474Zm13.236,1.686,1.874-1.557a4.745,4.745,0,0,0,.657-1.338c1.345-4.165,1.494-9.463,2.7-13.748a4.636,4.636,0,0,0-1.858-4.032h15.613v.373l-.5,2.366-10.088.154-1.278,6.075h6l-.637,2.853-5.842.029-1.266,6.087h11.741l-.5,2.741Zm-25.98,0,1.247-.936A5,5,0,0,0,90.495,26.3c1.231-4.289,1.4-9.409,2.544-13.78a4.783,4.783,0,0,0-1.857-4.033h5.5L92.93,29.16Zm-42.593,0A5.155,5.155,0,0,0,47.8,26.447c1.33-4.234,1.526-9.47,2.768-13.805a4.577,4.577,0,0,0-1.858-4.158h5.5L61.266,24.3l2.319-12.145A4.963,4.963,0,0,0,61.7,8.483h5.37L63.326,29.159l-3.063-.119L53.211,13.465l-3,15.695Z" transform="translate(830.851 2114.014)" fill="#fff"/>
    <path id="sun" d="M11.788,29.659a18.03,18.03,0,0,1,1.344-6.845l-6.25-4.478,7.319,2.3a18.084,18.084,0,0,1,22.655-7.66l4.49-6.266-2.313,7.357a18.092,18.092,0,0,1,8.73,12.966H45.655A16,16,0,1,0,17.243,39.471l-1.577,1.37A18,18,0,0,1,11.788,29.659Zm-2.215,5.19,1.1,3.23L0,39.841ZM48.747,21.538,59.42,19.777l-9.571,4.992ZM19.764,0l4.992,9.572-3.23,1.1Z" transform="translate(814 2093)" fill="#ffde03"/>
  </g>
</svg>
